<svg width="16" height="16" viewBox="0 0 16 16" fill="none" xmlns="http://www.w3.org/2000/svg">
<path d="M16 8.37501C16 8.93438 15.8656 9.45313 15.5969 9.92813C15.3281 10.4031 14.9688 10.775 14.5156 11.0344C14.5281 11.1188 14.5344 11.25 14.5344 11.4281C14.5344 12.275 14.25 12.9938 13.6875 13.5875C13.1219 14.1844 12.4406 14.4813 11.6438 14.4813C11.2875 14.4813 10.9469 14.4156 10.625 14.2844C10.375 14.7969 10.0156 15.2094 9.54376 15.525C9.07501 15.8438 8.55938 16 8.00001 16C7.42813 16 6.90938 15.8469 6.44688 15.5344C5.98125 15.225 5.625 14.8094 5.375 14.2844C5.05313 14.4156 4.71563 14.4813 4.35625 14.4813C3.55938 14.4813 2.875 14.1844 2.30313 13.5875C1.73125 12.9938 1.44688 12.2719 1.44688 11.4281C1.44688 11.3344 1.45938 11.2031 1.48125 11.0344C1.02813 10.7719 0.668751 10.4031 0.4 9.92813C0.134375 9.45313 0 8.93438 0 8.37501C0 7.78126 0.15 7.23438 0.446875 6.74063C0.743751 6.24688 1.14375 5.88125 1.64375 5.64375C1.5125 5.2875 1.44688 4.92813 1.44688 4.57188C1.44688 3.72813 1.73125 3.00625 2.30313 2.4125C2.875 1.81875 3.55938 1.51875 4.35625 1.51875C4.7125 1.51875 5.05313 1.58438 5.375 1.71563C5.625 1.20313 5.98438 0.790626 6.45625 0.475C6.925 0.159375 7.44063 0 8.00001 0C8.55938 0 9.07501 0.159375 9.54376 0.471875C10.0125 0.787501 10.375 1.2 10.625 1.7125C10.9469 1.58125 11.2844 1.51563 11.6438 1.51563C12.4406 1.51563 13.1219 1.8125 13.6875 2.40938C14.2531 3.00625 14.5344 3.725 14.5344 4.56875C14.5344 4.9625 14.475 5.31875 14.3563 5.64063C14.8563 5.87813 15.2563 6.24375 15.5531 6.7375C15.85 7.23438 16 7.78126 16 8.37501ZM7.65938 10.7844L10.9625 5.8375C11.0469 5.70625 11.0719 5.5625 11.0438 5.40938C11.0125 5.25625 10.9344 5.13438 10.8031 5.05313C10.6719 4.96875 10.5281 4.94063 10.375 4.9625C10.2188 4.9875 10.0938 5.0625 10 5.19375L7.09063 9.56876L5.75 8.23126C5.63125 8.11251 5.49375 8.05626 5.34063 8.06251C5.18438 8.06876 5.05 8.12501 4.93125 8.23126C4.825 8.33751 4.77188 8.47188 4.77188 8.63438C4.77188 8.79376 4.825 8.92813 4.93125 9.03751L6.77188 10.8781L6.8625 10.95C6.96876 11.0219 7.07813 11.0563 7.18438 11.0563C7.39375 11.0531 7.55313 10.9656 7.65938 10.7844Z" fill="#2E90FA"/>
</svg>
